<svg width="236" height="235" viewBox="0 0 236 235" fill="none" xmlns="http://www.w3.org/2000/svg">
<g clip-path="url(#clip0_53_3911)">
<circle cx="121" cy="125.5" r="109" fill="#E7D5FF"/>
<circle cx="121" cy="125.5" r="84" fill="#EEE1FF"/>
<circle cx="152" cy="125.5" r="60" fill="#F7F1FF"/>
<g clip-path="url(#clip1_53_3911)">
<path d="M159.317 43.9487C159.317 43.9487 174.192 45.8081 179.602 60.0877C185.013 74.3674 181.815 92.8491 181.815 92.8491L154.371 86.546L155.561 61.1847L159.317 43.9487Z" fill="black"/>
<path d="M146.636 70.9274C146.636 70.9274 155.115 71.2993 159.986 59.474C164.876 47.6486 158.759 38.3892 158.759 38.3892L148.124 43.9671L142.341 65.1077L146.636 70.946V70.9274Z" fill="black"/>
<path d="M112.294 159.097C112.294 159.097 73.1181 238.788 72.8206 265.042C72.5231 291.295 125.198 378.386 125.198 378.386C125.198 378.386 139.515 384.411 160.544 383.723C181.573 383.035 184.882 380.562 184.882 380.562C184.882 380.562 181.275 193.755 172.871 176.277C164.467 158.8 112.294 159.097 112.294 159.097Z" fill="#9164CD"/>
<path d="M81.9875 94.2804C81.9875 94.2804 73.8808 91.6029 69.5858 87.3451C65.3093 83.0872 60.568 73.772 60.568 73.772L40.7476 78.9595C40.7476 78.9595 40.7476 113.971 61.3675 127.711C81.9875 141.452 98.6657 135.929 98.6657 135.929L81.9875 94.299V94.2804Z" fill="#FCA397"/>
<path d="M142.527 76.1337C142.527 76.1337 161.158 75.5015 170.771 84.2218C180.383 92.942 174.08 168.951 174.08 168.951C174.08 168.951 148.998 171.052 131.037 168.951C113.076 166.85 104.969 163.987 104.969 163.987C104.969 163.987 102.868 94.1134 107.665 85.7092C112.481 77.305 142.509 76.1337 142.509 76.1337H142.527Z" fill="#002355"/>
<path d="M146.339 65.7959L147.51 79.7223C147.51 79.7223 145.335 83.943 137.247 85.3003C131.222 86.3043 128.973 85.1143 128.973 85.1143L129.214 77.9931L129.475 71.0392L143.922 66.5582L146.339 65.7959Z" fill="#995E34"/>
<path d="M143.922 66.5581C143.922 66.9486 143.811 67.3948 143.625 67.934C141.096 75.1482 132.71 77.3794 129.215 77.993L129.475 71.0391L143.922 66.5581Z" fill="black"/>
<path d="M123.673 39.5608C123.673 39.5608 117.835 57.652 121.554 67.0974C125.254 76.5614 133.974 74.1257 139.087 71.7272C144.2 69.31 146.339 65.8145 146.339 65.8145C146.339 65.8145 151.47 67.0045 154.315 62.0587C157.16 57.1128 154.594 52.0369 151.638 51.1072C148.681 50.1775 145.521 52.5575 145.521 52.5575L147.659 47.2584C147.659 47.2584 133.993 22.7896 123.673 39.5794V39.5608Z" fill="#995E34"/>
<path d="M146.637 59.9762C146.488 59.9762 146.358 59.9204 146.247 59.7902C146.061 59.5857 146.098 59.251 146.302 59.0837L152.196 54.0449C152.42 53.859 152.736 53.8962 152.903 54.1007C153.089 54.3052 153.052 54.6399 152.847 54.8072L146.953 59.846C146.86 59.9204 146.749 59.9762 146.618 59.9762H146.637Z" fill="black"/>
<path d="M152.344 59.4182C152.344 59.4182 152.289 59.4182 152.251 59.4182L148.031 58.7116C147.752 58.6559 147.566 58.3956 147.622 58.1353C147.677 57.8564 147.938 57.6704 148.198 57.7262L152.419 58.4327C152.698 58.4885 152.884 58.7488 152.828 59.0091C152.791 59.2509 152.568 59.4368 152.326 59.4368L152.344 59.4182Z" fill="black"/>
<path d="M135.926 45.8636C135.796 45.8636 135.647 45.8079 135.554 45.6963C133.565 43.5209 131.408 44.8596 131.315 44.9154C131.073 45.0641 130.776 45.0083 130.608 44.7666C130.46 44.5249 130.515 44.2274 130.757 44.0601C131.761 43.3907 134.216 42.74 136.298 45.0083C136.484 45.2129 136.465 45.529 136.261 45.7335C136.168 45.8264 136.038 45.8636 135.926 45.8636Z" fill="black"/>
<path d="M122.353 46.347C122.223 46.347 122.093 46.2913 122 46.1983C121.795 45.9938 121.814 45.6777 122 45.4732C123.859 43.651 125.235 44.1158 125.403 44.1716C125.663 44.2646 125.793 44.5621 125.7 44.8224C125.607 45.0827 125.31 45.2128 125.049 45.1199C124.994 45.1199 124.082 44.8596 122.707 46.1983C122.614 46.2913 122.483 46.347 122.353 46.347Z" fill="black"/>
<path d="M147.194 75.8548C147.194 75.8548 134.198 266.938 135.276 269.113C136.354 271.289 160.916 275.101 169.599 273.464C178.282 271.828 183.061 269.113 184.455 267.477C185.85 265.841 183.544 140.894 183.544 140.894L184.901 89.5766C184.901 89.5766 166.141 75.7804 147.194 75.8548Z" fill="#F9E6D2"/>
<path d="M166.531 115.068H150.058C148.651 115.068 147.51 116.208 147.51 117.615V120.46C147.51 121.867 148.651 123.007 150.058 123.007H166.531C167.938 123.007 169.078 121.867 169.078 120.46V117.615C169.078 116.208 167.938 115.068 166.531 115.068Z" fill="#9164CD"/>
<path d="M125.533 60.6081C125.31 60.6081 125.087 60.4594 125.031 60.2177C123.637 54.305 127.077 51.4416 127.225 51.3301C127.448 51.1627 127.764 51.1813 127.932 51.4044C128.099 51.6276 128.081 51.9436 127.857 52.111C127.727 52.2225 124.771 54.714 126.017 59.9759C126.072 60.2548 125.905 60.5152 125.645 60.5895C125.608 60.5895 125.57 60.5895 125.533 60.5895V60.6081Z" fill="black"/>
<path d="M122.986 53.0406C122.986 53.0406 122.93 53.0406 122.893 53.0406C122.614 52.9849 122.428 52.7246 122.484 52.4457L123.042 49.3964L122.112 48.2436C121.945 48.0205 121.964 47.7044 122.187 47.537C122.41 47.3697 122.726 47.4069 122.893 47.6114L123.953 48.9501C124.046 49.0617 124.083 49.2104 124.065 49.3592L123.47 52.6316C123.432 52.8733 123.209 53.0406 122.968 53.0406H122.986Z" fill="black"/>
<path d="M131.186 64.9405C130.293 64.9405 129.568 64.6244 129.531 64.6058C129.364 64.5314 129.252 64.3641 129.233 64.1968C129.233 64.0108 129.308 63.8435 129.457 63.7319L133.826 60.757C133.993 60.6454 134.216 60.6454 134.384 60.757C134.551 60.8686 134.644 61.0545 134.625 61.259C134.402 62.8952 133.789 64.0108 132.785 64.5686C132.264 64.8661 131.706 64.9591 131.204 64.9591L131.186 64.9405ZM130.981 63.9179C131.39 63.9551 131.855 63.9179 132.283 63.6576C132.729 63.3973 133.082 62.951 133.324 62.3188L130.981 63.9179Z" fill="black"/>
<path d="M112.072 82.0093C112.072 82.0093 103.054 87.141 93.9803 90.1345C85.5204 92.9421 79.1429 93.1653 79.1429 93.1653C79.1429 93.1653 79.1243 104.024 79.4776 115.366C79.8494 127.042 78.2876 135.279 78.2876 135.279C78.2876 135.279 106.494 141.34 113.02 132.341C119.546 123.342 112.09 82.0093 112.09 82.0093H112.072Z" fill="#7772D3"/>
<path d="M58.8573 63.5833C58.8573 63.5833 55.3432 47.9277 51.0481 47.6117C46.7345 47.2956 50.1184 60.2179 50.1184 60.2179L38.4605 55.7555C38.4605 55.7555 25.1848 52.0555 22.5632 53.2082C19.9229 54.361 24.2738 58.6561 24.2738 58.6561C24.2738 58.6561 14.8284 55.8299 16.1485 60.4224C17.4686 65.0336 23.9391 67.6738 23.9391 67.6738C23.9391 67.6738 14.6982 64.4014 16.7807 69.7935C17.9149 72.7126 38.2187 85.0028 51.9034 84.5751C65.5881 84.1289 60.1216 73.5865 60.1216 73.5865L58.8573 63.5833Z" fill="#995E34"/>
<path d="M29.0154 70.6116C28.8667 70.6116 28.7365 70.5558 28.625 70.4256C28.4391 70.2211 28.4762 69.8864 28.6808 69.7191L40.4317 59.6787C40.6363 59.4928 40.9709 59.53 41.1383 59.7345C41.3242 59.939 41.287 60.2737 41.0825 60.441L29.3315 70.4814C29.2386 70.5558 29.127 70.6116 28.9969 70.6116H29.0154Z" fill="black"/>
<path d="M53.7072 76.3378C53.5027 76.3378 49.5609 75.966 47.7202 72.7307C46.1955 70.0347 46.6232 66.2417 49.0031 61.4446C49.1332 61.1843 49.4307 61.0913 49.691 61.2215C49.9514 61.3516 50.0443 61.6491 49.9142 61.9094C47.7016 66.3904 47.2553 69.8674 48.6126 72.2473C50.1931 75.0177 53.7258 75.3338 53.763 75.3338C54.0419 75.3524 54.2464 75.5941 54.2278 75.873C54.2092 76.1333 53.9861 76.3378 53.7258 76.3378H53.7072Z" fill="black"/>
<path d="M125.198 373.124C124.938 373.124 124.715 372.92 124.696 372.641C121.331 314.853 122.39 222.035 122.465 216.085L104.243 205.301C104.002 205.152 103.927 204.855 104.058 204.613C104.206 204.371 104.504 204.297 104.745 204.427L123.209 215.36C123.357 215.453 123.469 215.62 123.45 215.806C123.45 216.773 122.205 313.198 125.682 372.585C125.682 372.864 125.477 373.106 125.198 373.124C125.198 373.124 125.179 373.124 125.161 373.124H125.198Z" fill="#230A45"/>
<path d="M131.818 52.4643C131.818 52.4643 131.762 52.4643 131.725 52.4643C131.446 52.4086 131.26 52.1483 131.316 51.8694L131.874 48.8572L130.665 47.5557C130.479 47.3512 130.479 47.0351 130.684 46.8306C130.888 46.6446 131.204 46.6446 131.409 46.8492L132.785 48.3366C132.896 48.4482 132.933 48.6155 132.915 48.7643L132.32 52.0367C132.283 52.2784 132.06 52.4457 131.818 52.4457V52.4643Z" fill="black"/>
<path d="M145.54 52.5388L143.922 54.4167L144.74 51.7207C144.74 51.7207 140.929 51.7021 135.946 48.5412C130.963 45.3804 129.773 37.7199 129.773 37.7199C129.773 37.7199 127.616 38.724 125.255 40.5833C122.893 42.424 122.391 44.3949 122.391 44.3949C122.391 44.3949 116.144 27.066 129.252 24.8162C142.36 22.5664 151.694 33.6852 151.694 33.6852C151.694 33.6852 159.206 34.7264 159.95 42.0894C160.693 49.4523 155.562 55.1604 155.562 55.1604C155.562 55.1604 152.215 49.0618 145.558 52.5574L145.54 52.5388Z" fill="black"/>
<path d="M62.6133 73.8096L34.8721 85.7465C34.8721 85.7465 45.4702 123.379 66.9269 131.895C87.7328 140.15 98.6471 138.328 98.6471 138.328L79.4216 236.464C79.4216 236.464 108.204 168.803 108.836 165.084C109.468 161.384 129.233 77.3981 129.233 77.3981C129.233 77.3981 124.566 76.7287 114.321 80.6705C104.076 84.6123 93.3666 89.5767 83.9026 89.5767C74.4386 89.5767 62.6133 73.8096 62.6133 73.8096Z" fill="#F9E6D2"/>
<path d="M128.973 85.1142L128.192 91.3801C128.192 91.3801 145.484 84.1287 146.636 80.8935C147.789 77.6397 129.735 82.7156 129.735 82.7156L128.973 85.1328V85.1142Z" fill="#995E34"/>
<path d="M128.192 91.9005C128.08 91.9005 127.987 91.8633 127.894 91.8076C127.746 91.7146 127.671 91.5472 127.69 91.3613L128.359 80.0938C128.359 79.8149 128.619 79.6104 128.898 79.6104C129.177 79.6104 129.382 79.8707 129.382 80.1496L128.768 90.599C131.911 89.2603 143.959 83.9798 146.246 80.5958C146.395 80.3727 146.711 80.2983 146.952 80.4656C147.176 80.6144 147.25 80.9305 147.083 81.1722C144.294 85.2999 129.047 91.5844 128.396 91.8447C128.341 91.8633 128.266 91.8819 128.21 91.8819L128.192 91.9005Z" fill="white"/>
<path d="M166.011 263.331C159.633 263.331 148.05 262.271 147.12 261.063C146.265 259.947 147.325 232.541 147.827 220.808C147.827 220.529 148.068 220.325 148.329 220.325H176.218C176.497 220.325 176.721 220.548 176.721 220.827V260.747C176.721 260.914 176.646 261.063 176.516 261.156C176.423 261.23 174.173 262.773 168.614 263.238C167.926 263.294 167.052 263.331 166.029 263.331H166.011ZM148.812 221.347C148.18 236.501 147.436 259.073 147.957 260.523C148.961 261.342 162.906 262.699 168.502 262.253C172.816 261.899 175.029 260.839 175.698 260.486V221.366H148.812V221.347Z" fill="#FFBF69"/>
<path d="M115.492 182.784L74.3268 182.877C72.8207 182.877 71.2961 181.613 70.9056 180.033L55.1385 116.462C54.7481 114.882 55.6405 113.617 57.1466 113.599L98.3121 113.506C99.7996 113.506 101.343 114.77 101.733 116.351L117.5 179.921C117.891 181.502 116.998 182.766 115.492 182.784Z" fill="#187342"/>
<path d="M110.677 182.784L69.5114 182.877C68.0053 182.877 66.4807 181.613 66.0902 180.033L50.3231 116.462C49.9326 114.882 50.8251 113.617 52.3312 113.599L93.4967 113.506C95.0028 113.506 96.5274 114.77 96.9179 116.351L112.685 179.921C113.075 181.502 112.183 182.766 110.677 182.784Z" fill="#14AE5C"/>
<path d="M81.7089 104.191C81.7089 104.191 81.5416 104.191 81.4672 104.191C80.7049 104.116 80.0913 103.744 79.6636 103.094C77.5254 99.7841 80.8908 89.5578 81.0395 89.1301C81.1139 88.9256 81.2998 88.814 81.523 88.7769C81.7461 88.7769 81.932 88.9256 82.0064 89.1301C82.3783 90.3015 85.5391 100.695 83.2893 103.466C82.8989 103.949 82.3597 104.209 81.7089 104.209V104.191ZM81.5044 91.0452C80.5003 94.5408 79.1988 100.491 80.5189 102.536C80.7792 102.926 81.1139 103.131 81.5601 103.187C81.9692 103.224 82.2667 103.112 82.4898 102.833C83.8657 101.123 82.5084 94.7639 81.4858 91.0638L81.5044 91.0452Z" fill="#FFBF69"/>
<path d="M130.182 137.975C130.182 137.975 117.52 133.661 115.103 133.81C112.685 133.959 106.568 135.892 106.568 135.892L107.424 139.351C107.424 139.351 86.1342 141.675 86.1528 145.877C86.1528 148.74 95.3937 148.238 95.3937 148.238C95.3937 148.238 85.8553 149.521 86.1528 152.775C86.4503 156.029 98.2385 155.694 98.2385 155.694C98.2385 155.694 88.4956 157.647 92.1399 160.491C95.8027 163.336 127.002 166.59 131.706 158.874C136.429 151.157 130.182 137.956 130.182 137.956V137.975Z" fill="#995E34"/>
<path d="M184.883 89.5767C184.883 89.5767 220.452 123.379 212.959 152.329C203.049 190.631 126.389 168.338 126.389 168.338L128.973 132.62L175.029 130.091L184.883 89.5581V89.5767Z" fill="#F9E6D2"/>
<path d="M182.484 131.43C177.65 131.43 172.09 130.854 171.737 130.817C171.514 130.798 171.328 130.631 171.291 130.408C171.254 130.184 171.365 129.961 171.57 129.868C178.412 126.484 186.928 127.247 189.085 128.79C189.624 129.162 189.68 129.552 189.661 129.813C189.605 130.222 189.271 130.556 188.657 130.798C187.393 131.281 185.05 131.449 182.503 131.449L182.484 131.43ZM173.782 129.98C177.538 130.296 185.645 130.854 188.266 129.831C188.434 129.757 188.527 129.701 188.583 129.664C187.802 128.809 180.736 127.302 173.764 129.98H173.782Z" fill="#FFBF69"/>
<path d="M106.865 139.37C106.624 139.37 106.419 139.202 106.363 138.961C106.308 138.682 106.494 138.421 106.772 138.366L112.369 137.324C112.648 137.269 112.908 137.455 112.964 137.733C113.02 138.012 112.834 138.273 112.555 138.328L106.958 139.37C106.958 139.37 106.903 139.37 106.865 139.37Z" fill="black"/>
<path d="M93.8321 148.703C93.5718 148.703 93.3672 148.517 93.3301 148.257C93.2929 147.978 93.4974 147.717 93.7763 147.699L108.056 145.97C108.335 145.933 108.595 146.137 108.614 146.416C108.651 146.695 108.446 146.955 108.168 146.974L93.8879 148.703C93.8879 148.703 93.8507 148.703 93.8321 148.703Z" fill="black"/>
<path d="M96.4898 156.587C96.2295 156.587 96.025 156.401 95.9878 156.141C95.9506 155.862 96.1551 155.601 96.434 155.583L110.955 153.742C111.234 153.705 111.495 153.909 111.513 154.188C111.55 154.467 111.346 154.728 111.067 154.746L96.5456 156.587C96.5456 156.587 96.5084 156.587 96.4898 156.587Z" fill="black"/>
<path d="M80.8346 123.509H70.8314C68.2283 123.509 65.9413 121.743 65.3092 119.214L63.8961 113.655C63.8217 113.376 63.9891 113.115 64.268 113.041C64.5283 112.967 64.8072 113.134 64.8815 113.413L66.2946 118.972C66.8152 121.055 68.6932 122.505 70.8314 122.505H80.8346C82.006 122.505 83.103 121.984 83.8467 121.055C84.5904 120.144 84.8693 118.954 84.609 117.801L83.7165 113.673C83.6608 113.394 83.8281 113.134 84.107 113.078C84.3673 113.023 84.6462 113.19 84.702 113.469L85.5945 117.596C85.9105 119.047 85.5573 120.553 84.6276 121.706C83.6979 122.858 82.3034 123.528 80.816 123.528L80.8346 123.509Z" fill="white"/>
<path d="M152.512 93.6485C152.512 93.6485 152.401 93.6485 152.364 93.6299C151.992 93.5369 151.769 93.1837 151.862 92.8118C153.293 86.7876 153.052 82.0463 151.155 79.0899C149.705 76.8216 147.79 76.4125 147.771 76.4125C147.399 76.3381 147.176 75.9849 147.251 75.613C147.325 75.2411 147.678 75.018 148.05 75.0924C148.143 75.111 150.542 75.613 152.308 78.3648C154.428 81.6744 154.725 86.6388 153.182 93.1279C153.107 93.444 152.829 93.6485 152.531 93.6485H152.512Z" fill="#9164CD"/>
<path d="M119.639 109.155C119.267 109.155 118.97 108.858 118.97 108.486C118.97 107.426 118.821 82.6413 128.136 75.8734C128.434 75.6503 128.861 75.7246 129.085 76.0221C129.308 76.3196 129.233 76.7473 128.936 76.9704C120.197 83.3293 120.327 108.226 120.327 108.467C120.327 108.839 120.03 109.155 119.658 109.155H119.639Z" fill="#9164CD"/>
<path d="M151.21 115.923C151.21 115.923 151.024 115.923 150.931 115.868C150.597 115.719 150.429 115.328 150.578 114.975C150.652 114.826 157.179 99.6914 152.344 94.4667C151.749 93.8159 151.024 93.537 150.15 93.6114C145.744 94.0019 138.901 103.243 136.633 106.775C136.428 107.092 136.019 107.185 135.703 106.98C135.387 106.775 135.294 106.366 135.499 106.05C135.852 105.511 144.089 92.7933 150.039 92.2727C151.322 92.1611 152.437 92.5888 153.33 93.5556C158.759 99.4311 152.084 114.882 151.805 115.533C151.694 115.793 151.452 115.942 151.192 115.942L151.21 115.923Z" fill="#9164CD"/>
<path d="M119.639 113.822C121.867 113.822 123.673 112.016 123.673 109.788C123.673 107.559 121.867 105.753 119.639 105.753C117.41 105.753 115.604 107.559 115.604 109.788C115.604 112.016 117.41 113.822 119.639 113.822Z" fill="#9164CD"/>
<path d="M121.2 109.787C121.2 110.661 120.494 111.349 119.638 111.349C118.783 111.349 118.077 110.643 118.077 109.787C118.077 108.932 118.783 108.226 119.638 108.226C120.494 108.226 121.2 108.932 121.2 109.787Z" fill="#DD6B50"/>
<path d="M139.106 107.742H133.882C133.51 107.742 133.212 107.445 133.212 107.073C133.212 106.701 133.51 106.403 133.882 106.403H139.106C139.478 106.403 139.776 106.701 139.776 107.073C139.776 107.445 139.478 107.742 139.106 107.742Z" fill="#46467F"/>
<path d="M151.991 118.136C151.768 118.136 151.545 118.024 151.415 117.82L148.682 113.376C148.477 113.06 148.589 112.651 148.905 112.446C149.221 112.26 149.648 112.353 149.834 112.669L152.568 117.113C152.753 117.429 152.66 117.838 152.344 118.043C152.233 118.117 152.103 118.136 151.991 118.136Z" fill="#46467F"/>
</g>
</g>
<defs>
<clipPath id="clip0_53_3911">
<rect width="236" height="234" fill="white" transform="translate(0 0.5)"/>
</clipPath>
<clipPath id="clip1_53_3911">
<rect width="198" height="403.623" fill="white" transform="translate(16 24.5)"/>
</clipPath>
</defs>
</svg>
