<svg width="236" height="215" viewBox="0 0 236 215" fill="none" xmlns="http://www.w3.org/2000/svg">
<g clip-path="url(#clip0_68_5959)">
<circle cx="121" cy="125.5" r="109" fill="#E8FFF3"/>
<circle cx="121" cy="125.5" r="84" fill="#A8FFD2"/>
<g clip-path="url(#clip1_68_5959)">
<path d="M70.9131 159.235L60.5831 206.775C60.5831 206.775 53.125 233.643 53.125 240.087C53.125 246.53 64.832 255.482 64.832 255.482L67.0688 244.867C67.0688 244.867 66.119 238.948 67.5185 234.342C68.9179 229.736 71.4864 235.334 71.4864 235.334L81.9513 222.87L100.082 168.255L70.9187 159.23L70.9131 159.235Z" fill="#FCA397"/>
<path d="M83.565 181.503L34.8711 375.125C34.8711 375.125 84.4417 397.967 86.8022 397.392C89.1627 396.817 108.671 303.936 108.671 303.936C108.671 303.936 109.828 396.908 109.626 397.392C109.424 397.877 167.138 398.153 170.701 396.451C174.265 394.743 162.743 185.5 162.743 185.5L83.5593 181.503H83.565Z" fill="#9164CD"/>
<path d="M200 142.994C200 142.994 189.068 101.559 165.784 85.3516C142.493 69.1441 99.3353 72.7972 88.7917 81.8959C78.7877 90.5268 65.0293 137.311 65.0293 137.311L83.0872 155.424L80.1534 183.048L164.513 188.527L164.356 143.902L200 142.988V142.994Z" fill="#9164CD"/>
<path d="M110.212 40.8952C110.212 40.8952 99.8591 28.0476 104.204 22.9514C108.548 17.8552 115.264 22.9514 115.264 22.9514C115.264 22.9514 115.635 16.9194 122.334 17.5452C129.034 18.1653 133.069 25.3304 133.069 25.3304C133.069 25.3304 138.965 19.4168 143 25.3304C147.035 31.244 144.242 40.8952 144.242 40.8952C144.242 40.8952 148.896 40.2018 147.654 45.687C146.412 51.1722 139.088 56.8208 139.088 56.8208L110.206 40.8952H110.212Z" fill="black"/>
<path d="M132.876 61.1165L133.073 75.6045C133.073 75.6045 130.527 79.8044 122.085 80.6049C115.796 81.2025 113.857 77.0759 113.857 77.0759L114.346 72.4589L115.116 65.2938L130.325 61.7197L132.876 61.1165Z" fill="#FCA397"/>
<path d="M130.326 61.7197C130.292 62.1143 130.152 62.5822 129.927 63.1234C126.791 70.4013 117.978 72.0812 114.348 72.459L115.118 65.2938L130.326 61.7197Z" fill="black"/>
<path d="M111.447 32.3207C111.447 32.3207 104.113 50.5858 107.238 60.6373C110.363 70.6888 119.518 68.8228 124.97 66.7088C130.421 64.5947 132.877 61.1277 132.877 61.1277C132.877 61.1277 138.071 62.7288 141.375 57.8299C144.674 52.931 142.398 47.4853 139.425 46.307C136.452 45.1288 133.018 47.3612 133.018 47.3612L135.603 42.0395C135.603 42.0395 123.317 15.7355 111.447 32.3263V32.3207Z" fill="#FCA397"/>
<path d="M133.653 55.1127C133.759 55.1127 133.872 55.0789 133.962 55.0112L140.402 50.2307C140.633 50.056 140.683 49.729 140.509 49.4979C140.335 49.2667 140.009 49.216 139.779 49.3907L133.338 54.1713C133.107 54.346 133.057 54.673 133.231 54.9041C133.332 55.045 133.49 55.1183 133.653 55.1183V55.1127Z" fill="black"/>
<path d="M139.582 54.9548C139.818 54.9548 140.031 54.7913 140.087 54.5545C140.155 54.2726 139.981 53.9851 139.705 53.9175L135.406 52.8689C135.125 52.7956 134.844 52.976 134.771 53.2523C134.703 53.5341 134.872 53.8216 135.153 53.8893L139.452 54.9379C139.492 54.9491 139.537 54.9548 139.576 54.9548H139.582Z" fill="black"/>
<path d="M123.266 40.5119C123.322 40.5119 123.384 40.5006 123.44 40.4837C123.71 40.3878 123.856 40.0834 123.755 39.8128C122.687 36.8194 120.091 36.4529 118.871 36.6784C118.585 36.7292 118.399 36.9998 118.45 37.2873C118.5 37.5748 118.776 37.7608 119.057 37.7101C119.169 37.6875 121.743 37.276 122.772 40.1623C122.85 40.3766 123.053 40.5119 123.266 40.5119Z" fill="black"/>
<path d="M109.228 39.0686C109.043 38.8488 109.071 38.5162 109.29 38.3301C109.846 37.8622 111.527 36.4247 112.201 37.197C112.392 37.4169 112.37 37.7495 112.156 37.9412C112.005 38.0765 111.797 38.1046 111.622 38.037C111.493 38.0652 111.032 38.2287 109.964 39.1363C109.863 39.2209 109.745 39.2603 109.627 39.2603C109.481 39.2603 109.329 39.1983 109.228 39.0743V39.0686Z" fill="black"/>
<path d="M112.241 52.9986C112.353 52.9986 112.46 52.9648 112.555 52.8915C112.786 52.7168 112.831 52.3842 112.656 52.153C111.212 50.2532 113.809 46.7299 114.933 45.5291C115.129 45.3149 115.118 44.9879 114.91 44.785C114.702 44.5876 114.371 44.5933 114.168 44.8075C113.977 45.0104 109.548 49.8022 111.825 52.79C111.926 52.9253 112.083 52.9986 112.241 52.9986Z" fill="black"/>
<path d="M109.784 46.2112C110.015 46.2112 110.228 46.0534 110.29 45.8166L111.15 42.4793C111.223 42.1974 111.055 41.9099 110.774 41.8366C110.498 41.769 110.206 41.9325 110.133 42.2143L109.273 45.5517C109.2 45.8335 109.368 46.1211 109.649 46.1943C109.694 46.2056 109.739 46.2112 109.779 46.2112H109.784Z" fill="black"/>
<path d="M118.927 46.2676C119.157 46.2676 119.371 46.1097 119.433 45.8729L120.293 42.5356C120.366 42.2537 120.197 41.9662 119.916 41.8929C119.641 41.8197 119.348 41.9888 119.275 42.2707L118.415 45.608C118.342 45.8899 118.511 46.1774 118.792 46.2507C118.837 46.2619 118.882 46.2676 118.921 46.2676H118.927Z" fill="black"/>
<path d="M109.986 36.4304C109.986 36.4304 111.515 33.499 115.118 33.4257C118.72 33.3524 120.856 35.8667 120.856 35.8667C120.856 35.8667 119.355 41.972 124.301 45.1402C129.241 48.3084 133.024 47.35 133.024 47.35L136.559 46.0309L139.094 40.7881L128.662 29.8178L115.264 22.9514L108.564 29.2146L109.981 36.4304H109.986Z" fill="black"/>
<path d="M91.1801 139.065C91.4499 139.065 91.6803 138.862 91.7084 138.591L95.8449 103.188C95.8786 102.895 95.6707 102.625 95.3784 102.591C95.0805 102.546 94.822 102.765 94.7827 103.059L90.6462 138.461C90.6124 138.755 90.8204 139.025 91.1126 139.059C91.1351 139.059 91.152 139.059 91.1745 139.059L91.1801 139.065Z" fill="white"/>
<path d="M131.569 165.391L98.8926 185.398C97.7067 186.126 95.8576 185.821 94.7617 184.716L50.609 140.074C49.5186 138.969 49.5917 137.486 50.7832 136.759L83.4594 116.752C84.6452 116.025 86.4943 116.329 87.5902 117.434L131.743 162.076C132.833 163.181 132.76 164.664 131.569 165.391Z" fill="#C45543"/>
<path d="M127.746 167.719L95.0703 187.727C93.8844 188.454 92.0354 188.149 90.9394 187.044L46.7867 142.402C45.6964 141.297 45.7694 139.814 46.9609 139.087L79.6371 119.08C80.823 118.353 82.672 118.657 83.768 119.762L127.921 164.405C129.011 165.51 128.938 166.992 127.746 167.719Z" fill="#DD6B50"/>
<path d="M63.8726 139.07C64.8112 139.07 65.7554 138.822 66.5984 138.304L74.5567 133.461C75.7313 132.745 76.5069 131.544 76.698 130.163C76.8947 128.72 76.4339 127.277 75.4279 126.206L72.6571 123.246C72.4547 123.032 72.1175 123.021 71.904 123.224C71.6904 123.426 71.6791 123.765 71.8815 123.979L74.6523 126.939C75.4335 127.773 75.7932 128.895 75.6414 130.017C75.4953 131.076 74.8996 132.001 74.0059 132.548L66.0477 137.396C64.3672 138.416 62.1922 138.129 60.7534 136.691L56.8698 132.796C56.6618 132.587 56.3246 132.587 56.111 132.796C55.9031 133.004 55.9031 133.343 56.111 133.557L59.9946 137.452C61.0625 138.523 62.4675 139.082 63.8726 139.082V139.07Z" fill="#FFBF69"/>
<path d="M130.09 129.453C128.387 127.39 125.825 126.251 123.155 126.414C118.805 126.685 112.229 127.192 110.712 127.903C108.396 128.979 103.13 133.23 103.13 133.23L105.299 136.308C105.299 136.308 85.28 146.788 86.9043 150.926C88.0059 153.739 96.8859 149.708 96.8859 149.708C96.8859 149.708 88.0059 154.646 89.5458 157.73C91.0858 160.819 102.534 155.96 102.534 155.96C102.534 155.96 93.7048 161.637 98.3865 163.035C103.068 164.433 134.963 155.639 136.638 146.219C137.739 140.023 133.271 133.32 130.09 129.453Z" fill="#FCA397"/>
<path d="M104.534 136.567C104.629 136.567 104.725 136.539 104.815 136.488L109.912 133.309C110.165 133.151 110.238 132.824 110.087 132.57C109.929 132.322 109.603 132.243 109.35 132.396L104.253 135.575C104 135.733 103.927 136.06 104.079 136.314C104.18 136.477 104.354 136.567 104.534 136.567Z" fill="black"/>
<path d="M95.311 150.796C95.3953 150.796 95.4852 150.774 95.5639 150.734L108.923 143.546C109.182 143.405 109.283 143.079 109.142 142.819C109.002 142.56 108.676 142.458 108.417 142.599L95.0581 149.787C94.7996 149.928 94.6984 150.249 94.8389 150.514C94.9344 150.695 95.1199 150.796 95.311 150.796Z" fill="black"/>
<path d="M152.323 139.572C152.323 139.572 152.379 139.572 152.401 139.572C152.694 139.527 152.896 139.256 152.851 138.963L150.26 121.916C150.215 121.623 149.934 121.425 149.653 121.465C149.361 121.51 149.159 121.786 149.204 122.074L151.789 139.121C151.828 139.386 152.059 139.578 152.317 139.578L152.323 139.572Z" fill="white"/>
<path d="M100.949 157.533C101.033 157.533 101.123 157.51 101.202 157.465L114.764 150.074C115.022 149.934 115.118 149.607 114.977 149.347C114.837 149.088 114.511 148.986 114.252 149.133L100.69 156.529C100.432 156.67 100.336 156.997 100.477 157.257C100.572 157.437 100.758 157.538 100.949 157.538V157.533Z" fill="black"/>
<path d="M133.075 75.6045C133.075 75.6045 124.447 83.7844 118.973 88.0744L113.572 74.5278L125.51 72.4589L133.08 75.6045H133.075Z" fill="#FCA397"/>
<path d="M105.187 95.8992C105.248 95.8992 105.31 95.8879 105.366 95.8654C122.458 89.7037 133.378 76.0782 133.49 75.9372C133.676 75.7061 133.636 75.3678 133.406 75.1818C133.175 74.9958 132.838 75.0352 132.653 75.2664C132.546 75.4017 121.806 88.7961 105.007 94.8507C104.731 94.9521 104.585 95.2565 104.686 95.5384C104.765 95.7583 104.973 95.8936 105.192 95.8936L105.187 95.8992Z" fill="white"/>
<path d="M118.967 88.61C119.063 88.61 119.164 88.5818 119.254 88.5254C119.501 88.3676 119.58 88.0349 119.417 87.7869C116.786 83.6265 114.1 74.4714 114.072 74.3812C113.987 74.0993 113.695 73.9302 113.409 74.0148C113.128 74.0993 112.965 74.3981 113.043 74.68C113.156 75.0633 115.797 84.0719 118.506 88.3619C118.607 88.5254 118.781 88.61 118.961 88.61H118.967Z" fill="white"/>
<path d="M197.382 143.062C197.382 143.062 204.756 171.158 179.088 174.975C153.426 178.791 130.321 153.085 130.321 153.085L127.123 127.175L177.902 143.563L197.382 143.062Z" fill="#FCA397"/>
<path d="M108.67 304.471C108.963 304.471 109.204 304.234 109.204 303.936L109.435 215.525C109.435 215.344 109.345 215.175 109.193 215.074L86.7682 200.298C86.5209 200.14 86.1893 200.208 86.0263 200.45C85.8634 200.698 85.9308 201.031 86.1781 201.194L108.361 215.812L108.131 303.93C108.131 304.229 108.367 304.466 108.665 304.466L108.67 304.471Z" fill="white"/>
<path d="M114.347 61.449C112.611 60.7049 111.402 58.6698 111.352 58.5852C111.256 58.4274 111.256 58.2301 111.346 58.0666C111.436 57.9031 111.599 57.8016 111.779 57.7904L119.754 57.4127C119.973 57.407 120.17 57.5254 120.26 57.7227C120.35 57.92 120.305 58.1512 120.153 58.3034C119.574 58.8953 116.854 61.5674 114.971 61.5674C114.746 61.5674 114.533 61.528 114.342 61.4434L114.347 61.449ZM112.779 58.7995C113.229 59.3745 113.937 60.1299 114.758 60.485C115.438 60.7726 117.056 59.6902 118.383 58.5345L112.774 58.7995H112.779Z" fill="black"/>
</g>
</g>
<defs>
<clipPath id="clip0_68_5959">
<rect width="236" height="214" fill="white" transform="translate(0 0.5)"/>
</clipPath>
<clipPath id="clip1_68_5959">
<rect width="222" height="434" fill="white" transform="translate(-22 17.5)"/>
</clipPath>
</defs>
</svg>
