<svg width="245" height="32" viewBox="0 0 245 32" fill="none" xmlns="http://www.w3.org/2000/svg">
<g clip-path="url(#clip0_18_1296)">
<path d="M15.9999 0C15.6488 0 15.3479 0.30094 15.3479 0.652038V6.52038C15.3479 6.87147 15.6488 7.17241 15.9999 7.17241C16.351 7.17241 16.652 6.87147 16.652 6.52038V0.652038C16.652 0.30094 16.351 0 15.9999 0Z" fill="#5AC3E6"/>
<path d="M15.9999 24.8276C15.6488 24.8276 15.3479 25.1285 15.3479 25.4796V31.348C15.3479 31.6991 15.6488 32 15.9999 32C16.351 32 16.652 31.6991 16.652 31.348V25.4796C16.652 25.1285 16.351 24.8276 15.9999 24.8276Z" fill="#5AC3E6"/>
<path d="M7.12226 16C7.12226 15.6489 6.82132 15.348 6.47022 15.348H0.652038C0.30094 15.348 0 15.6489 0 16C0 16.3511 0.30094 16.652 0.652038 16.652H6.52038C6.87147 16.6019 7.12226 16.3511 7.12226 16Z" fill="#5AC3E6"/>
<path d="M31.348 15.348H25.4797C25.1286 15.348 24.8276 15.6489 24.8276 16C24.8276 16.3511 25.1286 16.652 25.4797 16.652H31.348C31.6991 16.652 32.0001 16.3511 32.0001 16C32.0001 15.5987 31.6991 15.348 31.348 15.348Z" fill="#5AC3E6"/>
<path d="M8.82755 9.7304C8.97802 9.88087 9.12849 9.93103 9.27896 9.93103C9.42943 9.93103 9.63006 9.88087 9.73037 9.7304C9.98116 9.47962 9.98116 9.07837 9.73037 8.82758L5.61752 4.71473C5.36674 4.46395 4.96548 4.46395 4.7147 4.71473C4.46392 4.96551 4.46392 5.36677 4.7147 5.61755L8.82755 9.7304Z" fill="#5AC3E6"/>
<path d="M23.1725 22.2194C22.9217 21.9686 22.5204 21.9686 22.2696 22.2194C22.0188 22.4702 22.0188 22.8715 22.2696 23.1223L26.3825 27.2351C26.533 27.3856 26.6834 27.4357 26.8339 27.4357C26.9844 27.4357 27.185 27.3856 27.2853 27.2351C27.5361 26.9843 27.5361 26.5831 27.2853 26.3323L23.1725 22.2194Z" fill="#5AC3E6"/>
<path d="M9.73037 22.2194C9.47959 21.9686 9.07834 21.9686 8.82755 22.2194L4.7147 26.3323C4.46392 26.5831 4.46392 26.9843 4.7147 27.2351C4.86517 27.3856 5.01564 27.4357 5.16611 27.4357C5.31658 27.4357 5.51721 27.3856 5.61752 27.2351L9.73037 23.1223C9.98116 22.8715 9.98116 22.4702 9.73037 22.2194Z" fill="#5AC3E6"/>
<path d="M22.2697 9.7304C22.4201 9.88087 22.5706 9.93103 22.7211 9.93103C22.8715 9.93103 23.0722 9.88087 23.1725 9.7304L27.2853 5.61755C27.5361 5.36677 27.5361 4.96551 27.2853 4.71473C27.0345 4.46395 26.6333 4.46395 26.3825 4.71473L22.2697 8.82758C21.9687 9.07837 21.9687 9.47962 22.2697 9.7304Z" fill="#5AC3E6"/>
<path d="M10.7335 1.55484C10.5831 1.20375 10.232 1.05328 9.88088 1.20375C9.52978 1.35422 9.37931 1.70531 9.52978 2.05641L11.7868 7.47334C11.8871 7.72412 12.1379 7.87459 12.3887 7.87459C12.489 7.87459 12.5392 7.87459 12.6395 7.82444C12.9906 7.67397 13.1411 7.32287 12.9906 6.97177L10.7335 1.55484Z" fill="#5AC3E6"/>
<path d="M20.2133 24.4765C20.0628 24.1254 19.7117 23.9749 19.3606 24.1254C19.0095 24.2758 18.859 24.6269 19.0095 24.978L21.2666 30.395C21.3669 30.6458 21.6177 30.7962 21.8684 30.7962C21.9688 30.7962 22.0189 30.7962 22.1192 30.7461C22.4703 30.5956 22.6208 30.2445 22.4703 29.8934L20.2133 24.4765Z" fill="#5AC3E6"/>
<path d="M7.82454 19.3605C7.67407 19.0094 7.32298 18.8589 6.97188 19.0094L1.55495 21.2664C1.20385 21.4169 1.05338 21.768 1.20385 22.1191C1.30417 22.3699 1.55495 22.5204 1.80573 22.5204C1.90605 22.5204 1.9562 22.5204 2.05652 22.4702L7.47345 20.2132C7.77439 20.0627 7.97501 19.7116 7.82454 19.3605Z" fill="#5AC3E6"/>
<path d="M24.1755 12.5893C24.2758 12.8401 24.5266 12.9906 24.7774 12.9906C24.8777 12.9906 24.9279 12.9906 25.0282 12.9404L30.4451 10.6834C30.7962 10.5329 30.9467 10.1818 30.7962 9.83071C30.6458 9.47961 30.2947 9.32914 29.9436 9.47961L24.5266 11.7367C24.1755 11.8871 24.0251 12.2382 24.1755 12.5893Z" fill="#5AC3E6"/>
<path d="M1.5549 10.6834L6.97183 12.9404C7.07214 12.9906 7.1223 12.9906 7.22261 12.9906C7.47339 12.9906 7.72418 12.8401 7.82449 12.5893C7.97496 12.2382 7.82449 11.8871 7.47339 11.7367L2.05647 9.52977C1.70537 9.37929 1.35427 9.52977 1.2038 9.88086C1.10349 10.1818 1.25396 10.5831 1.5549 10.6834Z" fill="#5AC3E6"/>
<path d="M30.3951 21.2664L24.9781 19.0094C24.6271 18.8589 24.276 19.0094 24.1255 19.3605C23.975 19.7116 24.1255 20.0627 24.4766 20.2132L29.8935 22.4702C29.9938 22.5204 30.044 22.5204 30.1443 22.5204C30.3951 22.5204 30.6459 22.3699 30.7462 22.1191C30.8966 21.768 30.7462 21.3668 30.3951 21.2664Z" fill="#5AC3E6"/>
<path d="M12.5893 24.1756C12.2382 24.0251 11.8871 24.1756 11.7367 24.5267L9.52978 29.8934C9.37931 30.2445 9.52978 30.5956 9.88088 30.7461C9.98119 30.7963 10.0313 30.7963 10.1317 30.7963C10.3824 30.7963 10.6332 30.6458 10.7335 30.395L12.9906 24.9781C13.0909 24.6771 12.9404 24.2759 12.5893 24.1756Z" fill="#5AC3E6"/>
<path d="M19.3606 7.82444C19.4609 7.87459 19.511 7.87459 19.6113 7.87459C19.8621 7.87459 20.1129 7.72412 20.2132 7.47334L22.4703 2.05641C22.6207 1.70531 22.4703 1.35422 22.1192 1.20375C21.7681 1.05328 21.417 1.20375 21.2665 1.55484L19.0095 6.97177C18.9092 7.27271 19.0596 7.67397 19.3606 7.82444Z" fill="#5AC3E6"/>
<path d="M13.6928 16.6019H22.5204C22.5204 16.4012 22.5705 16.1505 22.5705 15.9498C22.5705 15.4984 22.5204 15.047 22.42 14.5956C21.8182 11.536 19.1599 9.22884 16 9.22884C12.3887 9.22884 9.42944 12.2382 9.42944 15.9498C9.42944 19.6614 12.3887 22.6708 16 22.6708C18.4577 22.6708 20.5642 21.3166 21.7178 19.2602L19.8119 18.1567C19.0595 19.511 17.6551 20.4138 16 20.4138C13.5925 20.4138 11.6363 18.4075 11.6363 15.9498C11.6363 13.4922 13.5925 11.4859 16 11.4859C17.9561 11.4859 19.6113 12.79 20.163 14.5956H15.699C14.5956 14.5956 13.6928 15.4984 13.6928 16.6019Z" fill="#9164CD"/>
<path d="M128.1 10.9843C127.85 9.98119 126.947 9.27899 125.843 9.27899V22.4201H128.15V16C128.15 13.5925 130.107 11.6364 132.464 11.6364H133.417L134.069 9.27899H132.464C130.759 9.27899 129.254 9.93103 128.1 10.9843Z" fill="#002355"/>
<path d="M45.2414 9.27899C41.6301 9.27899 38.6709 12.2884 38.6709 16C38.6709 19.7116 41.6301 22.721 45.2414 22.721C47.6991 22.721 49.8057 21.3668 50.9593 19.3103L49.0533 18.2069C48.301 19.5611 46.8966 20.4639 45.2414 20.4639C42.8339 20.4639 40.8778 18.4577 40.8778 16C40.8778 13.5423 42.8339 11.536 45.2414 11.536C47.1975 11.536 48.8527 12.8401 49.4044 14.6458H44.9405C43.837 14.6458 42.9342 15.5486 42.9342 16.652H49.5549H51.7618C51.7618 16.4514 51.812 16.2006 51.812 16C51.812 15.5486 51.7618 15.0972 51.6615 14.6458C51.0596 11.536 48.4013 9.27899 45.2414 9.27899Z" fill="#002355"/>
<path d="M74.2319 9.27899C70.6206 9.27899 67.6614 12.2884 67.6614 16C67.6614 19.7116 70.6206 22.721 74.2319 22.721C76.6896 22.721 78.7962 21.3668 79.9498 19.3103L78.0438 18.2069C77.2915 19.5611 75.8871 20.4639 74.2319 20.4639C71.8244 20.4639 69.8683 18.4577 69.8683 16C69.8683 13.5423 71.8244 11.536 74.2319 11.536C76.188 11.536 77.8432 12.8401 78.3949 14.6458H73.931C72.8275 14.6458 71.9247 15.5486 71.9247 16.652H78.5454H80.7523C80.7523 16.4514 80.8024 16.2006 80.8024 16C80.8024 15.5486 80.7523 15.0972 80.652 14.6458C79.9999 11.536 77.3918 9.27899 74.2319 9.27899Z" fill="#002355"/>
<path d="M139.686 16.6019H146.307H148.514C148.514 16.4012 148.564 16.1505 148.564 15.9498C148.564 15.4984 148.514 15.047 148.414 14.5956C147.812 11.536 145.154 9.22884 141.994 9.22884C138.382 9.22884 135.423 12.2382 135.423 15.9498C135.423 19.6614 138.382 22.6708 141.994 22.6708C144.451 22.6708 146.558 21.3166 147.711 19.2602L145.806 18.1567C145.053 19.511 143.649 20.4138 141.994 20.4138C139.586 20.4138 137.63 18.4075 137.63 15.9498C137.63 13.4922 139.586 11.4859 141.994 11.4859C143.95 11.4859 145.605 12.79 146.157 14.5956H141.693C140.589 14.5956 139.686 15.4984 139.686 16.6019Z" fill="#002355"/>
<path d="M119.172 11.0345C118.019 9.93103 116.464 9.22884 114.708 9.22884C111.097 9.22884 108.138 12.2382 108.138 15.9498C108.138 19.6614 111.097 22.6708 114.708 22.6708C115.912 22.6708 117.066 22.3197 118.019 21.7179L116.915 19.8119C116.263 20.2132 115.511 20.4138 114.708 20.4138C112.301 20.4138 110.345 18.4075 110.345 15.9498C110.345 13.4922 112.301 11.4859 114.708 11.4859C117.116 11.4859 119.072 13.4922 119.072 15.9498V22.3699H121.379V9.27899C120.326 9.27899 119.423 10.0313 119.172 11.0345Z" fill="#002355"/>
<path d="M100.012 11.4859C100.915 11.4859 102.069 11.837 102.871 12.5893C103.724 13.442 104.978 13.2915 105.73 12.6896C104.627 10.6332 102.47 9.27899 100.012 9.27899C96.4011 9.27899 93.4419 12.2884 93.4419 16C93.4419 19.7116 96.4011 22.721 100.012 22.721C102.47 22.721 104.577 21.3166 105.73 19.3103L103.824 18.2069C103.072 19.5611 101.668 20.5141 100.012 20.5141C97.6049 20.5141 95.6488 18.5078 95.6488 16.0502C95.5986 13.4922 97.5547 11.4859 100.012 11.4859Z" fill="#002355"/>
<path d="M86.1692 10.9843C85.9184 9.98119 85.0156 9.27899 83.9121 9.27899V22.4201H86.2193V16C86.2193 13.5925 88.1754 11.6364 90.5328 11.6364H91.4858L92.1378 9.27899H90.5328C88.8776 9.27899 87.3228 9.93103 86.1692 10.9843Z" fill="#002355"/>
<path d="M63.4484 11.0846L59.7368 19.0596L56.0252 11.0846C55.0722 9.0282 53.1161 9.17867 52.6145 9.27899L58.7336 22.4201H60.7399L66.859 9.27899C66.3575 9.17867 64.4013 9.0282 63.4484 11.0846Z" fill="#002355"/>
<path d="M128.1 10.9843C127.85 9.98119 126.947 9.27899 125.843 9.27899V22.4201H128.15V16C128.15 13.5925 130.107 11.6364 132.464 11.6364H133.417L134.069 9.27899H132.464C130.759 9.27899 129.254 9.93103 128.1 10.9843Z" fill="#002355"/>
<path d="M86.1692 10.9843C85.9184 9.98119 85.0156 9.27899 83.9121 9.27899V22.4201H86.2193V16C86.2193 13.5925 88.1754 11.6364 90.5328 11.6364H91.4858L92.1378 9.27899H90.5328C88.8776 9.27899 87.3228 9.93103 86.1692 10.9843Z" fill="#002355"/>
<path d="M166.119 16.2006H158.796V22.4201H156.89V9.22884H158.796V14.395H166.119V9.22884H168.025V22.4201H166.119V16.2006Z" fill="#002355"/>
<path d="M177.405 9.02821C181.116 9.02821 183.975 11.9875 183.975 15.7994C183.975 19.6614 181.116 22.5705 177.405 22.5705C173.693 22.5705 170.834 19.6113 170.834 15.7994C170.834 11.9875 173.693 9.02821 177.405 9.02821ZM177.405 20.815C180.113 20.815 182.119 18.7085 182.119 15.8495C182.119 12.9906 180.113 10.884 177.405 10.884C174.696 10.884 172.69 13.0408 172.69 15.8495C172.74 18.6583 174.746 20.815 177.405 20.815Z" fill="#002355"/>
<path d="M186.934 19.1097C187.687 20.0627 188.79 20.815 190.144 20.815C191.348 20.815 192.451 20.0125 192.451 18.8589C192.451 16.8527 189.643 16.6019 187.937 15.4483C186.984 14.8464 186.282 13.9436 186.282 12.5392C186.282 10.6332 187.988 9.02821 190.295 9.02821C191.95 9.02821 193.154 9.78056 193.856 10.3323L192.752 11.6865C192.05 11.0846 191.248 10.7837 190.395 10.7837C189.292 10.7837 188.188 11.3856 188.188 12.5392C188.188 14.1944 190.997 14.5956 192.702 15.6991C193.605 16.3009 194.408 17.2038 194.408 18.7085C194.408 21.0157 192.602 22.5204 190.345 22.5204C188.539 22.5204 186.884 21.7179 185.73 20.3135L186.934 19.1097Z" fill="#002355"/>
<path d="M199.122 16.5517V22.3699H197.216V9.22884H202.182C203.486 9.22884 204.288 9.52978 204.94 10.0815C205.743 10.7837 206.245 11.7367 206.245 12.8903C206.245 14.0439 205.743 14.9969 204.94 15.6991C204.288 16.2508 203.486 16.5517 202.182 16.5517H199.122ZM202.132 14.7461C203.034 14.7461 203.536 14.4953 203.887 14.1442C204.188 13.7931 204.439 13.3417 204.439 12.8401C204.439 12.3386 204.238 11.8871 203.887 11.536C203.536 11.1849 203.034 10.9342 202.132 10.9342H199.122V14.6959H202.132V14.7461Z" fill="#002355"/>
<path d="M210.909 9.22884H209.003V22.4201H210.909V9.22884Z" fill="#002355"/>
<path d="M213.317 9.22884H222.345V10.9843H218.784V22.4201H216.928V10.9843H213.317V9.22884Z" fill="#002355"/>
<path d="M230.972 19.0094H225.404L224.05 22.4201H222.094L227.561 9.22884H228.865L234.332 22.4201H232.376L230.972 19.0094ZM226.157 17.2038H230.219L228.163 12.2884L226.157 17.2038Z" fill="#002355"/>
<path d="M238.445 20.6144H244.313V22.4201H236.589V9.22884H238.445V20.6144Z" fill="#002355"/>
<path d="M166.219 16.2006H158.796V22.5204H156.84V9.12852H158.796V14.395H166.219V9.12852H168.125V22.5204H166.219V16.2006Z" fill="#002355"/>
<path d="M177.204 8.97806C180.966 8.97806 183.875 11.9373 183.875 15.8495C183.875 19.7618 180.966 22.721 177.204 22.721C173.442 22.721 170.533 19.7618 170.533 15.8495C170.533 11.9373 173.442 8.97806 177.204 8.97806ZM177.204 20.9154C179.912 20.9154 181.969 18.7586 181.969 15.8495C181.969 12.9404 179.912 10.7837 177.204 10.7837C174.495 10.7837 172.439 12.9404 172.439 15.8495C172.439 18.7586 174.495 20.9154 177.204 20.9154Z" fill="#002355"/>
<path d="M186.382 19.1599C187.185 20.1129 188.288 20.8652 189.643 20.8652C190.897 20.8652 191.95 20.0627 191.95 18.8589C191.95 16.8025 189.141 16.6019 187.335 15.3981C186.382 14.7461 185.63 13.8433 185.63 12.4389C185.63 10.4828 187.335 8.87775 189.693 8.87775C191.398 8.87775 192.602 9.6301 193.304 10.232L192.201 11.6364C191.498 11.0345 190.646 10.7335 189.793 10.7335C188.69 10.7335 187.586 11.3856 187.586 12.5392C187.586 14.2445 190.445 14.5956 192.15 15.7492C193.053 16.3511 193.906 17.2539 193.906 18.8088C193.906 21.1661 192.1 22.6709 189.743 22.6709C187.887 22.6709 186.232 21.8683 185.078 20.4138L186.382 19.1599Z" fill="#002355"/>
<path d="M198.671 16.6019V22.5204H196.765V9.12852H201.831C203.135 9.12852 203.987 9.42946 204.64 10.0313C205.442 10.7335 205.944 11.7367 205.944 12.8903C205.944 14.0439 205.442 15.047 204.64 15.7492C203.987 16.3009 203.135 16.652 201.831 16.652H198.671V16.6019ZM201.73 14.7962C202.633 14.7962 203.135 14.5455 203.486 14.1944C203.787 13.8433 204.038 13.3918 204.038 12.8903C204.038 12.3887 203.837 11.9373 203.486 11.5862C203.135 11.2351 202.633 10.9843 201.73 10.9843H198.671V14.7962H201.73Z" fill="#002355"/>
<path d="M210.558 9.12852H208.652V22.5204H210.558V9.12852Z" fill="#002355"/>
<path d="M212.966 9.12852H222.144V10.9843H218.483V22.5204H216.577V10.9843H212.966V9.12852Z" fill="#002355"/>
<path d="M230.771 19.0596H225.154L223.749 22.5204H221.743L227.31 9.12852H228.665L234.232 22.5204H232.226L230.771 19.0596ZM225.906 17.2539H230.019L227.962 12.2884L225.906 17.2539Z" fill="#002355"/>
<path d="M238.345 20.7147H244.263V22.5204H236.389V9.12852H238.345V20.7147Z" fill="#002355"/>
</g>
<defs>
<clipPath id="clip0_18_1296">
<rect width="245" height="32" fill="white"/>
</clipPath>
</defs>
</svg>
