<svg width="328" height="170" viewBox="0 0 328 170" fill="none" xmlns="http://www.w3.org/2000/svg">
<g clip-path="url(#clip0_18_1441)">
<circle cx="172.104" cy="142.21" r="132.01" fill="#E7D5FF"/>
<ellipse cx="172.475" cy="142.21" rx="101.974" ry="101.603" fill="#9164CD"/>
<ellipse cx="172.475" cy="142.21" rx="67.1174" ry="67.4882" fill="#002355"/>
<path d="M154.305 104.387C155.805 106.066 159.833 108.416 163.946 104.387" stroke="white" stroke-width="3.03255" stroke-linecap="round"/>
<path d="M171.363 104.387C172.978 106.066 177.316 108.416 181.746 104.387" stroke="white" stroke-width="3.03255" stroke-linecap="round"/>
<path d="M145.406 110.32C152.443 117.036 171.343 126.438 190.645 110.32" stroke="white" stroke-width="3.03255" stroke-linecap="round"/>
<path fill-rule="evenodd" clip-rule="evenodd" d="M-26.3154 149.078C-26.3154 174.883 -6.99964 196.176 17.9622 199.289C23.6744 220.974 43.4188 236.965 66.8982 236.965C85.853 236.965 102.374 226.544 111.042 211.117C113.141 211.477 115.299 211.665 117.5 211.665C138.46 211.665 155.451 194.673 155.451 173.713C155.451 152.753 138.46 135.762 117.5 135.762C108.718 135.762 100.632 138.745 94.2017 143.753C88.0025 139.772 80.878 137.108 73.2224 136.153C67.5101 114.468 47.7657 98.4766 24.2863 98.4766C-3.66027 98.4766 -26.3154 121.132 -26.3154 149.078Z" fill="white"/>
<path fill-rule="evenodd" clip-rule="evenodd" d="M310.424 185.154C333.69 182.253 351.694 162.406 351.694 138.353C351.694 112.304 330.578 91.1876 304.529 91.1876C282.644 91.1876 264.24 106.093 258.916 126.306C251.78 127.196 245.139 129.679 239.361 133.389C233.367 128.721 225.831 125.941 217.645 125.941C200.873 125.941 186.828 137.613 183.188 153.278C180.532 152.433 177.702 151.977 174.766 151.977C159.43 151.977 146.998 164.41 146.998 179.746C146.998 195.081 159.43 207.514 174.766 207.514C185.765 207.514 195.27 201.119 199.767 191.845C205.013 194.924 211.123 196.689 217.645 196.689C219.697 196.689 221.708 196.515 223.664 196.179C231.744 210.558 247.143 220.272 264.811 220.272C286.696 220.272 305.099 205.367 310.424 185.154Z" fill="white"/>
</g>
<defs>
<clipPath id="clip0_18_1441">
<rect width="328" height="170.074" fill="white" transform="translate(0 0.481506)"/>
</clipPath>
</defs>
</svg>
