<svg width="168" height="22" viewBox="0 0 168 22" fill="none" xmlns="http://www.w3.org/2000/svg">
<g clip-path="url(#clip0_23_3501)">
<path d="M10.9715 0C10.7308 0 10.5244 0.206897 10.5244 0.448276V4.48276C10.5244 4.72414 10.7308 4.93103 10.9715 4.93103C11.2123 4.93103 11.4186 4.72414 11.4186 4.48276V0.448276C11.4186 0.206897 11.2123 0 10.9715 0Z" fill="#5AC3E6"/>
<path d="M10.9715 17.069C10.7308 17.069 10.5244 17.2759 10.5244 17.5172V21.5517C10.5244 21.7931 10.7308 22 10.9715 22C11.2123 22 11.4186 21.7931 11.4186 21.5517V17.5172C11.4186 17.2759 11.2123 17.069 10.9715 17.069Z" fill="#5AC3E6"/>
<path d="M4.88383 11C4.88383 10.7587 4.67747 10.5518 4.43672 10.5518H0.447112C0.206359 10.5518 0 10.7587 0 11C0 11.2414 0.206359 11.4483 0.447112 11.4483H4.47112C4.71187 11.4138 4.88383 11.2414 4.88383 11Z" fill="#5AC3E6"/>
<path d="M21.4955 10.5518H17.4715C17.2308 10.5518 17.0244 10.7587 17.0244 11C17.0244 11.2414 17.2308 11.4483 17.4715 11.4483H21.4955C21.7363 11.4483 21.9426 11.2414 21.9426 11C21.9426 10.7242 21.7363 10.5518 21.4955 10.5518Z" fill="#5AC3E6"/>
<path d="M6.05273 6.68965C6.15591 6.79309 6.25909 6.82758 6.36227 6.82758C6.46545 6.82758 6.60302 6.79309 6.67181 6.68965C6.84378 6.51723 6.84378 6.24137 6.67181 6.06896L3.85157 3.24137C3.6796 3.06896 3.40446 3.06896 3.23249 3.24137C3.06052 3.41378 3.06052 3.68965 3.23249 3.86206L6.05273 6.68965Z" fill="#5AC3E6"/>
<path d="M15.8897 15.2758C15.7177 15.1034 15.4425 15.1034 15.2706 15.2758C15.0986 15.4482 15.0986 15.7241 15.2706 15.8965L18.0908 18.7241C18.194 18.8275 18.2972 18.862 18.4004 18.862C18.5035 18.862 18.6411 18.8275 18.7099 18.7241C18.8819 18.5517 18.8819 18.2758 18.7099 18.1034L15.8897 15.2758Z" fill="#5AC3E6"/>
<path d="M6.67181 15.2758C6.49984 15.1034 6.2247 15.1034 6.05273 15.2758L3.23249 18.1034C3.06052 18.2758 3.06052 18.5517 3.23249 18.7241C3.33567 18.8275 3.43885 18.862 3.54203 18.862C3.64521 18.862 3.78278 18.8275 3.85157 18.7241L6.67181 15.8965C6.84378 15.7241 6.84378 15.4482 6.67181 15.2758Z" fill="#5AC3E6"/>
<path d="M15.271 6.68965C15.3742 6.79309 15.4773 6.82758 15.5805 6.82758C15.6837 6.82758 15.8213 6.79309 15.8901 6.68965L18.7103 3.86206C18.8823 3.68965 18.8823 3.41378 18.7103 3.24137C18.5383 3.06896 18.2632 3.06896 18.0912 3.24137L15.271 6.06896C15.0646 6.24137 15.0646 6.51723 15.271 6.68965Z" fill="#5AC3E6"/>
<path d="M7.36039 1.06892C7.25721 0.827542 7.01646 0.724094 6.77571 0.827542C6.53496 0.93099 6.43178 1.17237 6.53496 1.41375L8.08265 5.13789C8.15144 5.3103 8.3234 5.41375 8.49537 5.41375C8.56416 5.41375 8.59855 5.41375 8.66734 5.37927C8.90809 5.27582 9.01127 5.03444 8.90809 4.79306L7.36039 1.06892Z" fill="#5AC3E6"/>
<path d="M13.8604 16.8276C13.7572 16.5862 13.5165 16.4828 13.2757 16.5862C13.035 16.6897 12.9318 16.931 13.035 17.1724L14.5827 20.8966C14.6514 21.069 14.8234 21.1724 14.9954 21.1724C15.0642 21.1724 15.0985 21.1724 15.1673 21.1379C15.4081 21.0345 15.5113 20.7931 15.4081 20.5517L13.8604 16.8276Z" fill="#5AC3E6"/>
<path d="M5.3649 13.3104C5.26172 13.069 5.02097 12.9655 4.78021 13.069L1.06575 14.6207C0.824997 14.7242 0.721817 14.9655 0.824997 15.2069C0.893783 15.3793 1.06575 15.4828 1.23772 15.4828C1.3065 15.4828 1.34089 15.4828 1.40968 15.4483L5.12415 13.8966C5.33051 13.7931 5.46808 13.5518 5.3649 13.3104Z" fill="#5AC3E6"/>
<path d="M16.5779 8.65517C16.6467 8.82758 16.8187 8.93103 16.9906 8.93103C17.0594 8.93103 17.0938 8.93103 17.1626 8.89655L20.8771 7.34482C21.1178 7.24138 21.221 7 21.1178 6.75862C21.0146 6.51724 20.7739 6.41379 20.5331 6.51724L16.8187 8.06896C16.5779 8.17241 16.4747 8.41379 16.5779 8.65517Z" fill="#5AC3E6"/>
<path d="M1.06569 7.34489L4.78015 8.89661C4.84894 8.93109 4.88333 8.93109 4.95212 8.93109C5.12408 8.93109 5.29605 8.82765 5.36483 8.65523C5.46801 8.41385 5.36483 8.17247 5.12408 8.06903L1.40962 6.55179C1.16886 6.44834 0.928113 6.55179 0.824933 6.79316C0.756147 7.00006 0.859326 7.27592 1.06569 7.34489Z" fill="#5AC3E6"/>
<path d="M20.8419 14.6207L17.1275 13.069C16.8867 12.9655 16.6459 13.069 16.5428 13.3104C16.4396 13.5518 16.5428 13.7931 16.7835 13.8966L20.498 15.4483C20.5668 15.4828 20.6012 15.4828 20.67 15.4828C20.8419 15.4828 21.0139 15.3793 21.0827 15.2069C21.1859 14.9655 21.0827 14.6897 20.8419 14.6207Z" fill="#5AC3E6"/>
<path d="M8.63294 16.6208C8.39219 16.5173 8.15144 16.6208 8.04826 16.8621L6.53496 20.5518C6.43178 20.7932 6.53496 21.0345 6.77571 21.138C6.8445 21.1725 6.87889 21.1725 6.94768 21.1725C7.11964 21.1725 7.29161 21.069 7.36039 20.8966L8.90809 17.1725C8.97687 16.9656 8.87369 16.6897 8.63294 16.6208Z" fill="#5AC3E6"/>
<path d="M13.2756 5.37927C13.3444 5.41375 13.3788 5.41375 13.4476 5.41375C13.6196 5.41375 13.7915 5.3103 13.8603 5.13789L15.408 1.41375C15.5112 1.17237 15.408 0.93099 15.1673 0.827542C14.9265 0.724094 14.6858 0.827542 14.5826 1.06892L13.0349 4.79306C12.9661 4.99995 13.0693 5.27582 13.2756 5.37927Z" fill="#5AC3E6"/>
<path d="M9.38924 11.4138H15.4424C15.4424 11.2759 15.4768 11.1035 15.4768 10.9655C15.4768 10.6552 15.4424 10.3448 15.3737 10.0345C14.9609 7.93106 13.1381 6.34485 10.9713 6.34485C8.49502 6.34485 6.46582 8.41381 6.46582 10.9655C6.46582 13.5173 8.49502 15.5862 10.9713 15.5862C12.6566 15.5862 14.1011 14.6552 14.8922 13.2414L13.5852 12.4828C13.0693 13.4138 12.1063 14.0345 10.9713 14.0345C9.32046 14.0345 7.97912 12.6552 7.97912 10.9655C7.97912 9.27588 9.32046 7.89657 10.9713 7.89657C12.3127 7.89657 13.4476 8.79312 13.826 10.0345H10.765C10.0083 10.0345 9.38924 10.6552 9.38924 11.4138Z" fill="#9164CD"/>
<path d="M87.8407 7.55169C87.6687 6.86203 87.0496 6.37927 86.293 6.37927V15.4138H87.8751V11C87.8751 9.34479 89.2164 7.99996 90.8329 7.99996H91.4863L91.9335 6.37927H90.8329C89.6635 6.37927 88.6317 6.82755 87.8407 7.55169Z" fill="#002355"/>
<path d="M31.0231 6.37927C28.5468 6.37927 26.5176 8.44824 26.5176 11C26.5176 13.5517 28.5468 15.6207 31.0231 15.6207C32.7084 15.6207 34.1529 14.6896 34.9439 13.2758L33.637 12.5172C33.1211 13.4482 32.1581 14.0689 31.0231 14.0689C29.3722 14.0689 28.0309 12.6896 28.0309 11C28.0309 9.31031 29.3722 7.931 31.0231 7.931C32.3644 7.931 33.4994 8.82755 33.8777 10.0689H30.8167C30.0601 10.0689 29.441 10.6896 29.441 11.4482H33.9809H35.4942C35.4942 11.3103 35.5286 11.1379 35.5286 11C35.5286 10.6896 35.4942 10.3793 35.4254 10.0689C35.0127 7.931 33.1899 6.37927 31.0231 6.37927Z" fill="#002355"/>
<path d="M50.902 6.37927C48.4257 6.37927 46.3965 8.44824 46.3965 11C46.3965 13.5517 48.4257 15.6207 50.902 15.6207C52.5873 15.6207 54.0318 14.6896 54.8228 13.2758L53.5159 12.5172C53 13.4482 52.037 14.0689 50.902 14.0689C49.2511 14.0689 47.9098 12.6896 47.9098 11C47.9098 9.31031 49.2511 7.931 50.902 7.931C52.2433 7.931 53.3783 8.82755 53.7566 10.0689H50.6956C49.939 10.0689 49.3199 10.6896 49.3199 11.4482H53.8598H55.3731C55.3731 11.3103 55.4075 11.1379 55.4075 11C55.4075 10.6896 55.3731 10.3793 55.3043 10.0689C54.8572 7.931 53.0688 6.37927 50.902 6.37927Z" fill="#002355"/>
<path d="M95.7847 11.4138H100.325H101.838C101.838 11.2759 101.872 11.1035 101.872 10.9655C101.872 10.6552 101.838 10.3448 101.769 10.0345C101.356 7.93106 99.5336 6.34485 97.3668 6.34485C94.8905 6.34485 92.8613 8.41381 92.8613 10.9655C92.8613 13.5173 94.8905 15.5862 97.3668 15.5862C99.0521 15.5862 100.497 14.6552 101.288 13.2414L99.9807 12.4828C99.4648 13.4138 98.5018 14.0345 97.3668 14.0345C95.716 14.0345 94.3746 12.6552 94.3746 10.9655C94.3746 9.27588 95.716 7.89657 97.3668 7.89657C98.7082 7.89657 99.8431 8.79312 100.221 10.0345H97.1605C96.4038 10.0345 95.7847 10.6552 95.7847 11.4138Z" fill="#002355"/>
<path d="M81.7179 7.58623C80.9268 6.82761 79.8606 6.34485 78.6569 6.34485C76.1806 6.34485 74.1514 8.41381 74.1514 10.9655C74.1514 13.5173 76.1806 15.5862 78.6569 15.5862C79.4823 15.5862 80.2734 15.3448 80.9268 14.9311L80.1702 13.6207C79.7231 13.8966 79.2072 14.0345 78.6569 14.0345C77.006 14.0345 75.6647 12.6552 75.6647 10.9655C75.6647 9.27588 77.006 7.89657 78.6569 7.89657C80.3077 7.89657 81.6491 9.27588 81.6491 10.9655V15.3793H83.2312V6.37933C82.5089 6.37933 81.8898 6.89657 81.7179 7.58623Z" fill="#002355"/>
<path d="M68.5797 7.89651C69.1988 7.89651 69.9898 8.13789 70.5401 8.65513C71.1248 9.24134 71.9847 9.13789 72.5006 8.7241C71.7439 7.31031 70.265 6.37927 68.5797 6.37927C66.1034 6.37927 64.0742 8.44824 64.0742 11C64.0742 13.5517 66.1034 15.6207 68.5797 15.6207C70.265 15.6207 71.7095 14.6551 72.5006 13.2758L71.1936 12.5172C70.6777 13.4482 69.7147 14.1034 68.5797 14.1034C66.9289 14.1034 65.5875 12.7241 65.5875 11.0344C65.5531 9.27582 66.8945 7.89651 68.5797 7.89651Z" fill="#002355"/>
<path d="M59.0877 7.55169C58.9158 6.86203 58.2967 6.37927 57.54 6.37927V15.4138H59.1221V11C59.1221 9.34479 60.4635 7.99996 62.0799 7.99996H62.7334L63.1805 6.37927H62.0799C60.945 6.37927 59.8788 6.82755 59.0877 7.55169Z" fill="#002355"/>
<path d="M43.5071 7.62067L40.962 13.1034L38.4169 7.62067C37.7634 6.20688 36.4221 6.31032 36.0781 6.37929L40.2741 15.4138H41.6498L45.8458 6.37929C45.5019 6.31032 44.1605 6.20688 43.5071 7.62067Z" fill="#002355"/>
<path d="M87.8407 7.55169C87.6687 6.86203 87.0496 6.37927 86.293 6.37927V15.4138H87.8751V11C87.8751 9.34479 89.2164 7.99996 90.8329 7.99996H91.4863L91.9335 6.37927H90.8329C89.6635 6.37927 88.6317 6.82755 87.8407 7.55169Z" fill="#002355"/>
<path d="M59.0877 7.55169C58.9158 6.86203 58.2967 6.37927 57.54 6.37927V15.4138H59.1221V11C59.1221 9.34479 60.4635 7.99996 62.0799 7.99996H62.7334L63.1805 6.37927H62.0799C60.945 6.37927 59.8788 6.82755 59.0877 7.55169Z" fill="#002355"/>
<path d="M113.91 11.138H108.889V15.4138H107.582V6.34485H108.889V9.89657H113.91V6.34485H115.217V15.4138H113.91V11.138Z" fill="#002355"/>
<path d="M121.649 6.20691C124.194 6.20691 126.155 8.24139 126.155 10.8621C126.155 13.5173 124.194 15.5173 121.649 15.5173C119.104 15.5173 117.144 13.4828 117.144 10.8621C117.144 8.24139 119.104 6.20691 121.649 6.20691ZM121.649 14.3104C123.506 14.3104 124.882 12.8621 124.882 10.8966C124.882 8.93105 123.506 7.48277 121.649 7.48277C119.792 7.48277 118.416 8.96553 118.416 10.8966C118.45 12.8276 119.826 14.3104 121.649 14.3104Z" fill="#002355"/>
<path d="M128.184 13.1379C128.7 13.7931 129.456 14.3104 130.385 14.3104C131.21 14.3104 131.967 13.7586 131.967 12.9655C131.967 11.5862 130.041 11.4138 128.872 10.6207C128.218 10.2069 127.737 9.58622 127.737 8.6207C127.737 7.31036 128.906 6.20691 130.488 6.20691C131.623 6.20691 132.449 6.72415 132.93 7.10346L132.173 8.03449C131.692 7.6207 131.142 7.41381 130.557 7.41381C129.8 7.41381 129.044 7.8276 129.044 8.6207C129.044 9.75863 130.97 10.0345 132.139 10.7931C132.758 11.2069 133.308 11.8276 133.308 12.8621C133.308 14.4483 132.07 15.4828 130.523 15.4828C129.284 15.4828 128.149 14.931 127.358 13.9655L128.184 13.1379Z" fill="#002355"/>
<path d="M136.541 11.3793V15.3793H135.234V6.34485H138.639C139.534 6.34485 140.084 6.55175 140.531 6.93106C141.081 7.41381 141.425 8.06899 141.425 8.86209C141.425 9.65519 141.081 10.3104 140.531 10.7931C140.084 11.1724 139.534 11.3793 138.639 11.3793H136.541ZM138.605 10.138C139.224 10.138 139.568 9.96554 139.809 9.72416C140.015 9.48278 140.187 9.17243 140.187 8.82761C140.187 8.48278 140.049 8.17243 139.809 7.93106C139.568 7.68968 139.224 7.51726 138.605 7.51726H136.541V10.1035H138.605V10.138Z" fill="#002355"/>
<path d="M144.623 6.34485H143.316V15.4138H144.623V6.34485Z" fill="#002355"/>
<path d="M146.274 6.34485H152.465V7.55174H150.023V15.4138H148.751V7.55174H146.274V6.34485Z" fill="#002355"/>
<path d="M158.381 13.069H154.563L153.634 15.4138H152.293L156.042 6.34485H156.936L160.685 15.4138H159.344L158.381 13.069ZM155.079 11.8276H157.865L156.455 8.4483L155.079 11.8276Z" fill="#002355"/>
<path d="M163.505 14.1724H167.529V15.4138H162.232V6.34485H163.505V14.1724Z" fill="#002355"/>
<path d="M113.979 11.1379H108.889V15.4828H107.548V6.27588H108.889V9.89657H113.979V6.27588H115.286V15.4828H113.979V11.1379Z" fill="#002355"/>
<path d="M121.511 6.17236C124.09 6.17236 126.085 8.20685 126.085 10.8965C126.085 13.5862 124.09 15.6206 121.511 15.6206C118.931 15.6206 116.937 13.5862 116.937 10.8965C116.937 8.20685 118.931 6.17236 121.511 6.17236ZM121.511 14.3793C123.368 14.3793 124.778 12.8965 124.778 10.8965C124.778 8.8965 123.368 7.41374 121.511 7.41374C119.654 7.41374 118.243 8.8965 118.243 10.8965C118.243 12.8965 119.654 14.3793 121.511 14.3793Z" fill="#002355"/>
<path d="M127.805 13.1724C128.356 13.8275 129.112 14.3448 130.041 14.3448C130.901 14.3448 131.623 13.793 131.623 12.9655C131.623 11.5517 129.697 11.4137 128.459 10.5862C127.805 10.1379 127.289 9.51719 127.289 8.55167C127.289 7.20684 128.459 6.10339 130.075 6.10339C131.245 6.10339 132.07 6.62063 132.552 7.03443L131.795 7.99995C131.313 7.58615 130.729 7.37926 130.144 7.37926C129.387 7.37926 128.631 7.82753 128.631 8.62063C128.631 9.79305 130.591 10.0344 131.761 10.8275C132.38 11.2413 132.964 11.862 132.964 12.931C132.964 14.5517 131.726 15.5862 130.11 15.5862C128.837 15.5862 127.702 15.0344 126.911 14.0344L127.805 13.1724Z" fill="#002355"/>
<path d="M136.232 11.4138V15.4828H134.925V6.27588H138.399C139.293 6.27588 139.877 6.48278 140.325 6.89657C140.875 7.37933 141.219 8.06898 141.219 8.86209C141.219 9.65519 140.875 10.3448 140.325 10.8276C139.877 11.2069 139.293 11.4483 138.399 11.4483H136.232V11.4138ZM138.33 10.1724C138.949 10.1724 139.293 10 139.534 9.75864C139.74 9.51726 139.912 9.20691 139.912 8.86209C139.912 8.51726 139.774 8.20691 139.534 7.96553C139.293 7.72415 138.949 7.55174 138.33 7.55174H136.232V10.1724H138.33Z" fill="#002355"/>
<path d="M144.383 6.27588H143.076V15.4828H144.383V6.27588Z" fill="#002355"/>
<path d="M146.033 6.27588H152.327V7.55174H149.816V15.4828H148.51V7.55174H146.033V6.27588Z" fill="#002355"/>
<path d="M158.244 13.1035H154.391L153.428 15.4828H152.053L155.87 6.27588H156.799L160.617 15.4828H159.241L158.244 13.1035ZM154.907 11.8621H157.728L156.317 8.44829L154.907 11.8621Z" fill="#002355"/>
<path d="M163.436 14.2414H167.494V15.4828H162.095V6.27588H163.436V14.2414Z" fill="#002355"/>
</g>
<defs>
<clipPath id="clip0_23_3501">
<rect width="168" height="22" fill="white"/>
</clipPath>
</defs>
</svg>
