<svg width="410" height="210" viewBox="0 0 410 210" fill="none" xmlns="http://www.w3.org/2000/svg">
<g clip-path="url(#clip0_103_1498)">
<circle cx="212.507" cy="166" r="163" fill="#E7D5FF"/>
<ellipse cx="212.965" cy="166" rx="125.913" ry="125.455" fill="#9164CD"/>
<ellipse cx="212.965" cy="166" rx="82.8736" ry="83.3315" fill="#002355"/>
<path d="M190.529 119.298C192.381 121.371 197.355 124.273 202.434 119.298" stroke="white" stroke-width="3.74446" stroke-linecap="round"/>
<path d="M211.591 119.298C213.585 121.371 218.941 124.273 224.411 119.298" stroke="white" stroke-width="3.74446" stroke-linecap="round"/>
<path d="M179.541 126.624C188.23 134.916 211.567 146.525 235.4 126.624" stroke="white" stroke-width="3.74446" stroke-linecap="round"/>
<path fill-rule="evenodd" clip-rule="evenodd" d="M-32.4932 183.481C-32.4932 215.343 -8.64286 241.636 22.1789 245.478C29.2321 272.255 53.6116 292 82.603 292C106.008 292 126.406 279.131 137.11 260.084C139.702 260.528 142.366 260.76 145.084 260.76C170.964 260.76 191.944 239.779 191.944 213.899C191.944 188.019 170.964 167.038 145.084 167.038C134.24 167.038 124.257 170.722 116.316 176.905C108.662 171.99 99.8646 168.7 90.4117 167.522C83.3585 140.745 58.979 121 29.9876 121C-4.51957 121 -32.4932 148.974 -32.4932 183.481Z" fill="white"/>
<path fill-rule="evenodd" clip-rule="evenodd" d="M383.297 228.025C412.026 224.443 434.257 199.937 434.257 170.238C434.257 138.074 408.183 112 376.019 112C348.996 112 326.272 130.405 319.698 155.362C310.887 156.461 302.688 159.528 295.553 164.109C288.152 158.345 278.846 154.912 268.739 154.912C248.03 154.912 230.687 169.324 226.193 188.666C222.913 187.623 219.419 187.06 215.794 187.06C196.858 187.06 181.507 202.411 181.507 221.347C181.507 240.284 196.858 255.634 215.794 255.634C229.374 255.634 241.111 247.739 246.663 236.288C253.141 240.089 260.685 242.269 268.739 242.269C271.272 242.269 273.756 242.053 276.171 241.639C286.148 259.393 305.161 271.388 326.977 271.388C353.999 271.388 376.723 252.983 383.297 228.025Z" fill="white"/>
</g>
<defs>
<clipPath id="clip0_103_1498">
<rect width="410" height="210" fill="white"/>
</clipPath>
</defs>
</svg>
