<svg width="32" height="32" viewBox="0 0 32 32" fill="none" xmlns="http://www.w3.org/2000/svg">
<path d="M15.9997 0C15.6486 0 15.3477 0.30094 15.3477 0.652038V6.52038C15.3477 6.87147 15.6486 7.17241 15.9997 7.17241C16.3508 7.17241 16.6517 6.87147 16.6517 6.52038V0.652038C16.6517 0.30094 16.3508 0 15.9997 0Z" fill="#5AC3E6"/>
<path d="M15.9997 24.8276C15.6486 24.8276 15.3477 25.1286 15.3477 25.4797V31.348C15.3477 31.6991 15.6486 32.0001 15.9997 32.0001C16.3508 32.0001 16.6517 31.6991 16.6517 31.348V25.4797C16.6517 25.1286 16.3508 24.8276 15.9997 24.8276Z" fill="#5AC3E6"/>
<path d="M7.12226 16.0001C7.12226 15.649 6.82132 15.348 6.47022 15.348H0.652038C0.30094 15.348 0 15.649 0 16.0001C0 16.3512 0.30094 16.6521 0.652038 16.6521H6.52038C6.87147 16.6019 7.12226 16.3512 7.12226 16.0001Z" fill="#5AC3E6"/>
<path d="M31.3485 15.348H25.4802C25.1291 15.348 24.8281 15.649 24.8281 16.0001C24.8281 16.3512 25.1291 16.6521 25.4802 16.6521H31.3485C31.6996 16.6521 32.0005 16.3512 32.0005 16.0001C32.0005 15.5988 31.6996 15.348 31.3485 15.348Z" fill="#5AC3E6"/>
<path d="M8.82828 9.73037C8.97875 9.88084 9.12923 9.931 9.2797 9.931C9.43017 9.931 9.63079 9.88084 9.73111 9.73037C9.98189 9.47959 9.98189 9.07834 9.73111 8.82755L5.61825 4.7147C5.36747 4.46392 4.96622 4.46392 4.71543 4.7147C4.46465 4.96548 4.46465 5.36674 4.71543 5.61752L8.82828 9.73037Z" fill="#5AC3E6"/>
<path d="M23.1729 22.2195C22.9222 21.9687 22.5209 21.9687 22.2701 22.2195C22.0193 22.4702 22.0193 22.8715 22.2701 23.1223L26.383 27.2351C26.5334 27.3856 26.6839 27.4358 26.8344 27.4358C26.9849 27.4358 27.1855 27.3856 27.2858 27.2351C27.5366 26.9844 27.5366 26.5831 27.2858 26.3323L23.1729 22.2195Z" fill="#5AC3E6"/>
<path d="M9.73111 22.2195C9.48032 21.9687 9.07907 21.9687 8.82828 22.2195L4.71543 26.3323C4.46465 26.5831 4.46465 26.9844 4.71543 27.2351C4.8659 27.3856 5.01637 27.4358 5.16684 27.4358C5.31731 27.4358 5.51794 27.3856 5.61825 27.2351L9.73111 23.1223C9.98189 22.8715 9.98189 22.4702 9.73111 22.2195Z" fill="#5AC3E6"/>
<path d="M22.2687 9.73037C22.4191 9.88084 22.5696 9.931 22.7201 9.931C22.8706 9.931 23.0712 9.88084 23.1715 9.73037L27.2843 5.61752C27.5351 5.36674 27.5351 4.96548 27.2843 4.7147C27.0336 4.46392 26.6323 4.46392 26.3815 4.7147L22.2687 8.82755C21.9677 9.07834 21.9677 9.47959 22.2687 9.73037Z" fill="#5AC3E6"/>
<path d="M10.7326 1.55483C10.5821 1.20373 10.231 1.05326 9.8799 1.20373C9.5288 1.3542 9.37833 1.7053 9.5288 2.0564L11.7859 7.47332C11.8862 7.72411 12.137 7.87458 12.3877 7.87458C12.4881 7.87458 12.5382 7.87458 12.6385 7.82442C12.9896 7.67395 13.1401 7.32285 12.9896 6.97176L10.7326 1.55483Z" fill="#5AC3E6"/>
<path d="M20.213 24.4765C20.0626 24.1254 19.7115 23.9749 19.3604 24.1254C19.0093 24.2758 18.8588 24.6269 19.0093 24.978L21.2663 30.395C21.3666 30.6457 21.6174 30.7962 21.8682 30.7962C21.9685 30.7962 22.0187 30.7962 22.119 30.7461C22.4701 30.5956 22.6206 30.2445 22.4701 29.8934L20.213 24.4765Z" fill="#5AC3E6"/>
<path d="M7.82528 19.3605C7.67481 19.0094 7.32371 18.8589 6.97261 19.0094L1.55568 21.2664C1.20459 21.4169 1.05411 21.768 1.20459 22.1191C1.3049 22.3699 1.55568 22.5204 1.80647 22.5204C1.90678 22.5204 1.95694 22.5204 2.05725 22.4702L7.47418 20.2132C7.77512 20.0627 7.97575 19.7116 7.82528 19.3605Z" fill="#5AC3E6"/>
<path d="M24.1753 12.5893C24.2756 12.8401 24.5264 12.9906 24.7772 12.9906C24.8775 12.9906 24.9276 12.9906 25.028 12.9404L30.4449 10.6834C30.796 10.5329 30.9464 10.1818 30.796 9.83071C30.6455 9.47961 30.2944 9.32914 29.9433 9.47961L24.5264 11.7367C24.1753 11.8871 24.0248 12.2382 24.1753 12.5893Z" fill="#5AC3E6"/>
<path d="M1.55392 10.6834L6.97085 12.9404C7.07116 12.9906 7.12132 12.9906 7.22163 12.9906C7.47242 12.9906 7.7232 12.8401 7.82351 12.5893C7.97398 12.2382 7.82351 11.8871 7.47242 11.7367L2.05549 9.52978C1.70439 9.37931 1.35329 9.52978 1.20282 9.88088C1.10251 10.1818 1.25298 10.5831 1.55392 10.6834Z" fill="#5AC3E6"/>
<path d="M30.3941 21.2664L24.9772 19.0094C24.6261 18.8589 24.275 19.0094 24.1245 19.3605C23.974 19.7116 24.1245 20.0627 24.4756 20.2132L29.8925 22.4702C29.9928 22.5204 30.043 22.5204 30.1433 22.5204C30.3941 22.5204 30.6449 22.3699 30.7452 22.1191C30.8957 21.768 30.7452 21.3668 30.3941 21.2664Z" fill="#5AC3E6"/>
<path d="M12.5884 24.1755C12.2373 24.0251 11.8862 24.1755 11.7357 24.5266L9.5288 29.8934C9.37833 30.2445 9.5288 30.5956 9.8799 30.7461C9.98021 30.7962 10.0304 30.7962 10.1307 30.7962C10.3815 30.7962 10.6323 30.6458 10.7326 30.395L12.9896 24.978C13.0899 24.6771 12.9395 24.2758 12.5884 24.1755Z" fill="#5AC3E6"/>
<path d="M19.3606 7.82442C19.4609 7.87458 19.511 7.87458 19.6113 7.87458C19.8621 7.87458 20.1129 7.72411 20.2132 7.47332L22.4703 2.0564C22.6207 1.7053 22.4703 1.3542 22.1192 1.20373C21.7681 1.05326 21.417 1.20373 21.2665 1.55483L19.0095 6.97176C18.9092 7.2727 19.0596 7.67395 19.3606 7.82442Z" fill="#5AC3E6"/>
<path d="M13.693 16.6019H22.5206C22.5206 16.4013 22.5708 16.1505 22.5708 15.9499C22.5708 15.4985 22.5206 15.0471 22.4203 14.5957C21.8184 11.5361 19.1601 9.22888 16.0002 9.22888C12.3889 9.22888 9.42969 12.2383 9.42969 15.9499C9.42969 19.6615 12.3889 22.6709 16.0002 22.6709C18.4579 22.6709 20.5645 21.3167 21.7181 19.2602L19.8121 18.1568C19.0598 19.511 17.6554 20.4138 16.0002 20.4138C13.5927 20.4138 11.6366 18.4076 11.6366 15.9499C11.6366 13.4922 13.5927 11.4859 16.0002 11.4859C17.9563 11.4859 19.6115 12.79 20.1632 14.5957H15.6993C14.5958 14.5957 13.693 15.4985 13.693 16.6019Z" fill="#9164CD"/>
</svg> 
